<?xml version="1.0" encoding="utf-8"?>
<!-- Generator: Adobe Illustrator 23.0.1, SVG Export Plug-In . SVG Version: 6.00 Build 0)  -->
<svg version="1.1" xmlns="http://www.w3.org/2000/svg" xmlns:xlink="http://www.w3.org/1999/xlink" x="0px" y="0px"
	 viewBox="0 0 256 256" style="enable-background:new 0 0 256 256;" xml:space="preserve">
<style type="text/css">
	.st0{opacity:0.85;}
	.st1{fill:#385163;}
	.st2{display:none;}
	.st3{display:inline;}
	.st4{fill:#FFFFFF;}
	.st5{fill:#17142C;}
	.st6{fill:#FDCA0F;}
	.st7{fill:#E4B10F;}
	.st8{fill:#FFDA00;}
	.st9{fill:#8EC044;}
	.st10{fill:#57A43A;}
</style>
<g id="Laag_2">
</g>
<g id="Laag_6">
</g>
<g id="Laag_4">
</g>
<g id="Laag_3" class="st2">
</g>
<g id="Laag_5">
</g>
<g id="Laag_1">
	<g>
		<g>
			<polygon class="st8" points="277.4,-155.7 277.4,297.1 -67.8,444.6 -67.8,-155.7 			"/>
		</g>
		<g>
			<g>
				<path d="M63.9,144.7l29.8-4.4V41.7h-44v146.9h14.3V144.7z M63.9,55.9h15.5V128l-15.5,2.3V55.9z M149.9,174.4h-29.7v-37.9
					l29.8-4.4V41.7h-44v146.9h44L149.9,174.4z M120.2,55.9h15.5v63.9l-15.5,2.3V55.9z M206.4,41.7h-44v146.9h14.3v-60.4l29.8-4.4
					V41.7z M192.1,111.5l-15.5,2.3V55.9h15.5V111.5z"/>
			</g>
			<path d="M49.6,200.1h126.9v14.3H49.6V200.1z"/>
		</g>
	</g>
</g>
</svg>
